<svg xmlns="http://www.w3.org/2000/svg" viewBox="0 0 140.001 30.921"><path d="M414.4-16.079A15.48,15.48,0,0,1,399-31.241,15.517,15.517,0,0,1,414.461-47a15.35,15.35,0,0,1,11.857,5.539.635.635,0,0,1-.1.911l-3.513,2.7a.63.63,0,0,1-.858-.085,9.71,9.71,0,0,0-7.709-3.371,9.819,9.819,0,0,0-9.434,9.083,9.787,9.787,0,0,0,9.752,10.464,9.793,9.793,0,0,0,9.219-6.519.314.314,0,0,0-.3-.415h-7.663a.632.632,0,0,1-.631-.632V-33.75a.631.631,0,0,1,.631-.632h13.573a.631.631,0,0,1,.631.632V-31.8a15.627,15.627,0,0,1-15.46,15.717ZM508.08-31.54A15.478,15.478,0,0,1,523.54-47,15.478,15.478,0,0,1,539-31.54a15.478,15.478,0,0,1-15.46,15.46A15.478,15.478,0,0,1,508.08-31.54Zm5.683,0a9.787,9.787,0,0,0,9.777,9.776,9.787,9.787,0,0,0,9.776-9.776,9.787,9.787,0,0,0-9.776-9.777A9.788,9.788,0,0,0,513.763-31.54Zm-79.782,0A15.478,15.478,0,0,1,449.441-47,15.478,15.478,0,0,1,464.9-31.54a15.478,15.478,0,0,1-15.46,15.46A15.478,15.478,0,0,1,433.981-31.54Zm5.684,0a9.787,9.787,0,0,0,9.776,9.776,9.787,9.787,0,0,0,9.777-9.776,9.788,9.788,0,0,0-9.777-9.777A9.787,9.787,0,0,0,439.665-31.54ZM501.809-16.7a.632.632,0,0,1-.594-.417l-6.2-16.581a.316.316,0,0,0-.6.018l-5.382,16.52a.629.629,0,0,1-.6.452h-3.87a.631.631,0,0,1-.606-.452l-5.38-16.52a.316.316,0,0,0-.6-.019l-6.2,16.582a.632.632,0,0,1-.595.417h-4.7a.631.631,0,0,1-.594-.845l10.695-28.408a.631.631,0,0,1,.594-.417h3.255a.631.631,0,0,1,.611.47l5.152,18.926a.316.316,0,0,0,.611,0l5.152-18.926a.63.63,0,0,1,.61-.47h3.256a.631.631,0,0,1,.594.417L507.1-17.55a.632.632,0,0,1-.595.845Z" transform="translate(-399 47)" fill="currentColor"/></svg>